<?xml version="1.0" encoding="UTF-8"?><svg xmlns="http://www.w3.org/2000/svg" xmlns:xlink="http://www.w3.org/1999/xlink" fill-opacity="1" color-rendering="auto" color-interpolation="auto" text-rendering="auto" stroke="black" stroke-linecap="square" width="1111" stroke-miterlimit="10" shape-rendering="auto" stroke-opacity="1" fill="black" stroke-dasharray="none" font-weight="normal" stroke-width="1" height="397" font-family="'Dialog'" font-style="normal" stroke-linejoin="miter" font-size="12px" stroke-dashoffset="0" image-rendering="auto">
  <!--Generated by ySVG 2.5-->
  <defs id="genericDefs"/>
  <g>
    <defs id="defs1">
      <clipPath clipPathUnits="userSpaceOnUse" id="clipPath1">
        <path d="M0 0 L1111 0 L1111 397 L0 397 L0 0 Z"/>
      </clipPath>
      <clipPath clipPathUnits="userSpaceOnUse" id="clipPath2">
        <path d="M-125 332 L986 332 L986 729 L-125 729 L-125 332 Z"/>
      </clipPath>
    </defs>
    <g fill="white" text-rendering="geometricPrecision" shape-rendering="geometricPrecision" transform="translate(125,-332)" stroke="white">
      <rect x="-125" width="1111" height="397" y="332" clip-path="url(#clipPath2)" stroke="none"/>
    </g>
    <g fill="silver" text-rendering="geometricPrecision" shape-rendering="geometricPrecision" transform="matrix(1,0,0,1,125,-332)" stroke="silver">
      <rect x="115.0417" y="429.75" clip-path="url(#clipPath2)" width="17" rx="4" ry="4" height="276.0842" stroke="none"/>
    </g>
    <g text-rendering="geometricPrecision" stroke-miterlimit="1.45" shape-rendering="geometricPrecision" transform="matrix(1,0,0,1,125,-332)" stroke-linecap="butt">
      <rect x="115.0417" y="429.75" clip-path="url(#clipPath2)" fill="none" width="17" rx="4" ry="4" height="276.0842"/>
    </g>
    <g fill="rgb(255,204,0)" text-rendering="geometricPrecision" shape-rendering="geometricPrecision" transform="matrix(1,0,0,1,125,-332)" stroke="rgb(255,204,0)">
      <rect x="688.5" y="347.0179" clip-path="url(#clipPath2)" width="156.25" rx="4" ry="4" height="30" stroke="none"/>
    </g>
    <g text-rendering="geometricPrecision" stroke-miterlimit="1.45" shape-rendering="geometricPrecision" transform="matrix(1,0,0,1,125,-332)" stroke-linecap="butt">
      <rect x="688.5" y="347.0179" clip-path="url(#clipPath2)" fill="none" width="156.25" rx="4" ry="4" height="30"/>
      <text x="757.1328" xml:space="preserve" y="366.1722" clip-path="url(#clipPath2)" font-family="sans-serif" stroke="none">API</text>
    </g>
    <g fill="silver" text-rendering="geometricPrecision" shape-rendering="geometricPrecision" transform="matrix(1,0,0,1,125,-332)" stroke="silver">
      <rect x="758.125" y="448.5179" clip-path="url(#clipPath2)" width="17" rx="4" ry="4" height="61.25" stroke="none"/>
    </g>
    <g text-rendering="geometricPrecision" stroke-miterlimit="1.45" shape-rendering="geometricPrecision" transform="matrix(1,0,0,1,125,-332)" stroke-linecap="butt">
      <rect x="758.125" y="448.5179" clip-path="url(#clipPath2)" fill="none" width="17" rx="4" ry="4" height="61.25"/>
    </g>
    <g fill="rgb(255,204,0)" text-rendering="geometricPrecision" shape-rendering="geometricPrecision" transform="matrix(1,0,0,1,125,-332)" stroke="rgb(255,204,0)">
      <rect x="269.25" y="347" clip-path="url(#clipPath2)" width="156.25" rx="4" ry="4" height="30" stroke="none"/>
    </g>
    <g text-rendering="geometricPrecision" stroke-miterlimit="1.45" shape-rendering="geometricPrecision" transform="matrix(1,0,0,1,125,-332)" stroke-linecap="butt">
      <rect x="269.25" y="347" clip-path="url(#clipPath2)" fill="none" width="156.25" rx="4" ry="4" height="30"/>
      <text x="314.8643" xml:space="preserve" y="366.1543" clip-path="url(#clipPath2)" font-family="sans-serif" stroke="none">Dispatcher</text>
    </g>
    <g fill="silver" text-rendering="geometricPrecision" shape-rendering="geometricPrecision" transform="matrix(1,0,0,1,125,-332)" stroke="silver">
      <rect x="338.875" y="558.31" clip-path="url(#clipPath2)" width="17" rx="4" ry="4" height="109.7019" stroke="none"/>
    </g>
    <g text-rendering="geometricPrecision" stroke-miterlimit="1.45" shape-rendering="geometricPrecision" transform="matrix(1,0,0,1,125,-332)" stroke-linecap="butt">
      <rect x="338.875" y="558.31" clip-path="url(#clipPath2)" fill="none" width="17" rx="4" ry="4" height="109.7019"/>
    </g>
    <g fill="rgb(153,204,255)" text-rendering="geometricPrecision" shape-rendering="geometricPrecision" transform="matrix(1,0,0,1,125,-332)" stroke="rgb(153,204,255)">
      <rect x="765.5" y="456.3304" clip-path="url(#clipPath2)" width="17" rx="4" ry="4" height="42.5" stroke="none"/>
    </g>
    <g text-rendering="geometricPrecision" stroke-miterlimit="1.45" shape-rendering="geometricPrecision" transform="matrix(1,0,0,1,125,-332)" stroke-linecap="butt">
      <rect x="765.5" y="456.3304" clip-path="url(#clipPath2)" fill="none" width="17" rx="4" ry="4" height="42.5"/>
    </g>
    <g fill="silver" text-rendering="geometricPrecision" shape-rendering="geometricPrecision" transform="matrix(1,0,0,1,125,-332)" stroke="silver">
      <rect x="542.1916" y="439.7679" clip-path="url(#clipPath2)" width="17" rx="4" ry="4" height="74.7" stroke="none"/>
    </g>
    <g text-rendering="geometricPrecision" stroke-miterlimit="1.45" shape-rendering="geometricPrecision" transform="matrix(1,0,0,1,125,-332)" stroke-linecap="butt">
      <rect x="542.1916" y="439.7679" clip-path="url(#clipPath2)" fill="none" width="17" rx="4" ry="4" height="74.7"/>
    </g>
    <g fill="rgb(255,204,0)" text-rendering="geometricPrecision" shape-rendering="geometricPrecision" transform="matrix(1,0,0,1,125,-332)" stroke="rgb(255,204,0)">
      <rect x="472.5666" y="347.0179" clip-path="url(#clipPath2)" width="156.25" rx="4" ry="4" height="30" stroke="none"/>
    </g>
    <g text-rendering="geometricPrecision" stroke-miterlimit="1.45" shape-rendering="geometricPrecision" transform="matrix(1,0,0,1,125,-332)" stroke-linecap="butt">
      <rect x="472.5666" y="347.0179" clip-path="url(#clipPath2)" fill="none" width="156.25" rx="4" ry="4" height="30"/>
      <text x="523.7648" xml:space="preserve" y="366.1722" clip-path="url(#clipPath2)" font-family="sans-serif" stroke="none">GwClient</text>
    </g>
    <g fill="rgb(255,204,0)" text-rendering="geometricPrecision" shape-rendering="geometricPrecision" transform="matrix(1,0,0,1,125,-332)" stroke="rgb(255,204,0)">
      <rect x="45.4167" y="347" clip-path="url(#clipPath2)" width="156.25" rx="4" ry="4" height="30" stroke="none"/>
    </g>
    <g text-rendering="geometricPrecision" stroke-miterlimit="1.45" shape-rendering="geometricPrecision" transform="matrix(1,0,0,1,125,-332)" stroke-linecap="butt">
      <rect x="45.4167" y="347" clip-path="url(#clipPath2)" fill="none" width="156.25" rx="4" ry="4" height="30"/>
      <text x="84.0671" xml:space="preserve" y="366.1543" clip-path="url(#clipPath2)" font-family="sans-serif" stroke="none">asset.actions</text>
    </g>
    <g fill="rgb(255,204,0)" text-rendering="geometricPrecision" shape-rendering="geometricPrecision" transform="matrix(1,0,0,1,125,-332)" stroke="rgb(255,204,0)">
      <rect x="-109.4354" y="347" clip-path="url(#clipPath2)" width="32.25" rx="4" ry="4" height="30" stroke="none"/>
    </g>
    <g text-rendering="geometricPrecision" stroke-miterlimit="1.45" shape-rendering="geometricPrecision" transform="matrix(1,0,0,1,125,-332)" stroke-linecap="butt">
      <rect x="-109.4354" y="347" clip-path="url(#clipPath2)" fill="none" width="32.25" rx="4" ry="4" height="30"/>
    </g>
    <g fill="silver" text-rendering="geometricPrecision" shape-rendering="geometricPrecision" transform="matrix(1,0,0,1,125,-332)" stroke="silver">
      <rect x="-101.8104" y="419.6668" clip-path="url(#clipPath2)" width="17" rx="4" ry="4" height="293.5832" stroke="none"/>
    </g>
    <g text-rendering="geometricPrecision" stroke-miterlimit="1.45" shape-rendering="geometricPrecision" transform="matrix(1,0,0,1,125,-332)" stroke-linecap="butt">
      <rect x="-101.8104" y="419.6668" clip-path="url(#clipPath2)" fill="none" width="17" rx="4" ry="4" height="293.5832"/>
    </g>
    <g fill="rgb(153,204,255)" text-rendering="geometricPrecision" shape-rendering="geometricPrecision" transform="matrix(1,0,0,1,125,-332)" stroke="rgb(153,204,255)">
      <rect x="125.5417" y="681.8889" clip-path="url(#clipPath2)" width="17" rx="4" ry="4" height="20.1696" stroke="none"/>
    </g>
    <g text-rendering="geometricPrecision" stroke-miterlimit="1.45" shape-rendering="geometricPrecision" transform="matrix(1,0,0,1,125,-332)" stroke-linecap="butt">
      <rect x="125.5417" y="681.8889" clip-path="url(#clipPath2)" fill="none" width="17" rx="4" ry="4" height="20.1696"/>
      <path fill="none" stroke-dasharray="6,2" d="M766.625 377.0303 L766.625 448.4792" clip-path="url(#clipPath2)"/>
      <path fill="none" stroke-dasharray="6,2" d="M347.375 376.9924 L347.375 558.299" clip-path="url(#clipPath2)"/>
      <path fill="none" d="M132.0634 564.9076 L330.8763 564.9076" clip-path="url(#clipPath2)"/>
      <path d="M338.8763 564.9076 L326.8763 559.9076 L329.8763 564.9076 L326.8763 569.9076 Z" clip-path="url(#clipPath2)" stroke="none"/>
      <rect x="164.8353" y="547.267" clip-path="url(#clipPath2)" fill="white" width="141.2461" height="15.6406" stroke="none"/>
      <text x="166.8353" font-size="10px" y="558.5492" clip-path="url(#clipPath2)" font-family="sans-serif" stroke="none" xml:space="preserve">updateAssetSuccess(asset)</text>
      <path fill="none" d="M132.0522 596.7488 L330.8538 596.7488" clip-path="url(#clipPath2)"/>
      <path d="M338.8538 596.7488 L326.8538 591.7488 L329.8538 596.7488 L326.8538 601.7488 Z" clip-path="url(#clipPath2)" stroke="none"/>
      <rect x="179.889" y="579.1081" clip-path="url(#clipPath2)" fill="white" width="111.1387" height="15.6406" stroke="none"/>
      <text x="181.889" font-size="10px" y="590.3904" clip-path="url(#clipPath2)" font-family="sans-serif" stroke="none" xml:space="preserve">setInfoMessage(msg)</text>
      <path fill="none" d="M132.0662 627.6777 L330.865 627.6777" clip-path="url(#clipPath2)"/>
      <path d="M338.865 627.6777 L326.865 622.6777 L329.865 627.6777 L326.865 632.6777 Z" clip-path="url(#clipPath2)" stroke="none"/>
      <text x="139.223" font-size="10px" y="621.3193" clip-path="url(#clipPath2)" font-family="sans-serif" stroke="none" xml:space="preserve">updateAssetConnections(connections)</text>
      <path fill="none" d="M132.0672 659.5056 L330.8703 659.5056" clip-path="url(#clipPath2)"/>
      <path d="M338.8703 659.5056 L326.8703 654.5056 L329.8703 659.5056 L326.8703 664.5056 Z" clip-path="url(#clipPath2)" stroke="none"/>
      <text x="152.5799" font-size="10px" y="653.1472" clip-path="url(#clipPath2)" font-family="sans-serif" stroke="none" xml:space="preserve">updateAssetState(updatedAsset)</text>
      <path fill="none" d="M782.4984 464.3687 L854.25 464.3687 L854.25 491.9118 L790.502 491.9118" clip-path="url(#clipPath2)"/>
      <path d="M782.502 491.9118 L794.502 496.9118 L791.502 491.9118 L794.502 486.9118 Z" clip-path="url(#clipPath2)" stroke="none"/>
      <rect x="798.1338" y="434.0484" clip-path="url(#clipPath2)" fill="white" width="172.2324" height="15.6406" stroke="none"/>
      <text x="800.1338" font-size="10px" y="445.3306" clip-path="url(#clipPath2)" font-family="sans-serif" stroke="none" xml:space="preserve">3. createAssetConnections(asset)</text>
      <path fill="none" d="M132.038 440.2061 L537.9132 439.7844" clip-path="url(#clipPath2)"/>
      <path d="M545.9132 439.7761 L533.908 434.7886 L536.9132 439.7855 L533.9184 444.7886 Z" clip-path="url(#clipPath2)" stroke="none"/>
      <rect x="142.1667" y="422.4368" clip-path="url(#clipPath2)" fill="white" width="113.7119" height="15.6406" stroke="none"/>
      <text x="144.1667" font-size="10px" y="433.719" clip-path="url(#clipPath2)" font-family="sans-serif" stroke="none" xml:space="preserve">1. updateAsset(asset)</text>
      <text x="144.1667" y="455.3342" clip-path="url(#clipPath2)" font-family="sans-serif" stroke="none" font-weight="bold" xml:space="preserve">async</text>
      <path fill="none" stroke-dasharray="6,2" d="M758.095 505.1056 L567.2115 505.1056" clip-path="url(#clipPath2)"/>
      <path stroke-dasharray="6,2" d="M559.2115 505.1056 L571.2115 510.1056 L568.2115 505.1056 L571.2115 500.1056 Z" clip-path="url(#clipPath2)" stroke="none"/>
      <rect x="627.4786" y="487.465" clip-path="url(#clipPath2)" fill="white" width="62.3594" stroke-dasharray="6,2" height="15.6406" stroke="none"/>
      <text x="629.4786" font-size="10px" y="498.7472" clip-path="url(#clipPath2)" font-family="sans-serif" stroke="none" xml:space="preserve">4. response</text>
      <path fill="none" d="M559.2115 448.5216 L753.941 448.5216" clip-path="url(#clipPath2)"/>
      <path d="M761.941 448.5216 L749.941 443.5216 L752.941 448.5216 L749.941 453.5216 Z" clip-path="url(#clipPath2)" stroke="none"/>
      <rect x="561.5802" y="430.881" clip-path="url(#clipPath2)" fill="white" width="194.1562" height="15.6406" stroke="none"/>
      <text x="563.5801" font-size="10px" y="442.1632" clip-path="url(#clipPath2)" font-family="sans-serif" stroke="none" xml:space="preserve">2. update("./asset/&lt;asset.id&gt;", asset)</text>
      <path fill="none" stroke-dasharray="6,2" d="M545.6576 514.4338 L140.0549 514.4338" clip-path="url(#clipPath2)"/>
      <path stroke-dasharray="6,2" d="M132.0549 514.4338 L144.0549 519.4338 L141.0549 514.4338 L144.0549 509.4338 Z" clip-path="url(#clipPath2)" stroke="none"/>
      <rect x="183.7367" y="494.4651" clip-path="url(#clipPath2)" fill="white" width="306.7598" stroke-dasharray="6,2" height="17.9688" stroke="none"/>
      <text x="185.7367" xml:space="preserve" y="507.6037" clip-path="url(#clipPath2)" font-family="sans-serif" stroke="none">promise&lt;Response&gt;: data = updatedAsset: Asset</text>
      <text x="144.1667" y="529.5725" clip-path="url(#clipPath2)" font-family="sans-serif" stroke="none" font-weight="bold" xml:space="preserve">await</text>
      <path fill="none" stroke-dasharray="6,2" d="M550.6916 376.9955 L550.6916 439.8165" clip-path="url(#clipPath2)"/>
      <path fill="none" stroke-dasharray="6,2" d="M123.5417 376.9973 L123.5417 429.7733" clip-path="url(#clipPath2)"/>
      <path fill="none" stroke-dasharray="6,2" d="M-93.3104 377.0249 L-93.3104 419.7122" clip-path="url(#clipPath2)"/>
      <path fill="none" stroke-dasharray="6,2" d="M118.9386 705.8331 L-76.7899 705.8331" clip-path="url(#clipPath2)"/>
      <path stroke-dasharray="6,2" d="M-84.7899 705.8331 L-72.7899 710.8331 L-75.7899 705.8331 L-72.7899 700.8331 Z" clip-path="url(#clipPath2)" stroke="none"/>
      <path fill="none" d="M-84.8223 429.7511 L110.9379 429.7511" clip-path="url(#clipPath2)"/>
      <path d="M118.9379 429.7511 L106.9379 424.7511 L109.9379 429.7511 L106.9379 434.7511 Z" clip-path="url(#clipPath2)" stroke="none"/>
      <text x="-82.1768" font-size="10px" y="423.3927" clip-path="url(#clipPath2)" font-family="sans-serif" stroke="none" xml:space="preserve">updateAsset(asset: Asset, callback: fn)</text>
      <path fill="none" d="M142.5401 685.7037 L214.2917 685.7037 L214.2917 698.775 L150.5436 698.775" clip-path="url(#clipPath2)"/>
      <path d="M142.5436 698.775 L154.5436 703.775 L151.5436 698.775 L154.5436 693.775 Z" clip-path="url(#clipPath2)" stroke="none"/>
      <text x="168.494" font-size="10px" y="677.6935" clip-path="url(#clipPath2)" font-family="sans-serif" stroke="none" xml:space="preserve">callback(storedAsset)</text>
    </g>
  </g>
</svg>
