<?xml version="1.0" encoding="UTF-8"?><svg xmlns="http://www.w3.org/2000/svg" xmlns:xlink="http://www.w3.org/1999/xlink" fill-opacity="1" color-rendering="auto" color-interpolation="auto" text-rendering="auto" stroke="black" stroke-linecap="square" width="1097" stroke-miterlimit="10" shape-rendering="auto" stroke-opacity="1" fill="black" stroke-dasharray="none" font-weight="normal" stroke-width="1" height="545" font-family="'Dialog'" font-style="normal" stroke-linejoin="miter" font-size="12px" stroke-dashoffset="0" image-rendering="auto">
  <!--Generated by ySVG 2.5-->
  <defs id="genericDefs"/>
  <g>
    <defs id="defs1">
      <clipPath clipPathUnits="userSpaceOnUse" id="clipPath1">
        <path d="M0 0 L1097 0 L1097 545 L0 545 L0 0 Z"/>
      </clipPath>
      <clipPath clipPathUnits="userSpaceOnUse" id="clipPath2">
        <path d="M-111 332 L986 332 L986 877 L-111 877 L-111 332 Z"/>
      </clipPath>
    </defs>
    <g fill="white" text-rendering="geometricPrecision" shape-rendering="geometricPrecision" transform="translate(111,-332)" stroke="white">
      <rect x="-111" width="1097" height="545" y="332" clip-path="url(#clipPath2)" stroke="none"/>
    </g>
    <g fill="silver" text-rendering="geometricPrecision" shape-rendering="geometricPrecision" transform="matrix(1,0,0,1,111,-332)" stroke="silver">
      <rect x="338.875" y="773.5808" clip-path="url(#clipPath2)" width="17" rx="4" ry="4" height="11.75" stroke="none"/>
    </g>
    <g text-rendering="geometricPrecision" stroke-miterlimit="1.45" shape-rendering="geometricPrecision" transform="matrix(1,0,0,1,111,-332)" stroke-linecap="butt">
      <rect x="338.875" y="773.5808" clip-path="url(#clipPath2)" fill="none" width="17" rx="4" ry="4" height="11.75"/>
      <rect fill="none" x="94.6767" width="307" height="121" y="622.5808" clip-path="url(#clipPath2)"/>
    </g>
    <g fill="silver" text-rendering="geometricPrecision" shape-rendering="geometricPrecision" transform="matrix(1,0,0,1,111,-332)" stroke="silver">
      <rect x="129.25" y="429.75" clip-path="url(#clipPath2)" width="17" rx="4" ry="4" height="401.25" stroke="none"/>
    </g>
    <g text-rendering="geometricPrecision" stroke-miterlimit="1.45" shape-rendering="geometricPrecision" transform="matrix(1,0,0,1,111,-332)" stroke-linecap="butt">
      <rect x="129.25" y="429.75" clip-path="url(#clipPath2)" fill="none" width="17" rx="4" ry="4" height="401.25"/>
    </g>
    <g fill="rgb(255,204,0)" text-rendering="geometricPrecision" shape-rendering="geometricPrecision" transform="matrix(1,0,0,1,111,-332)" stroke="rgb(255,204,0)">
      <rect x="688.5" y="347.0179" clip-path="url(#clipPath2)" width="156.25" rx="4" ry="4" height="30" stroke="none"/>
    </g>
    <g text-rendering="geometricPrecision" stroke-miterlimit="1.45" shape-rendering="geometricPrecision" transform="matrix(1,0,0,1,111,-332)" stroke-linecap="butt">
      <rect x="688.5" y="347.0179" clip-path="url(#clipPath2)" fill="none" width="156.25" rx="4" ry="4" height="30"/>
      <text x="757.1328" xml:space="preserve" y="366.1722" clip-path="url(#clipPath2)" font-family="sans-serif" stroke="none">API</text>
    </g>
    <g fill="silver" text-rendering="geometricPrecision" shape-rendering="geometricPrecision" transform="matrix(1,0,0,1,111,-332)" stroke="silver">
      <rect x="758.125" y="448.5179" clip-path="url(#clipPath2)" width="17" rx="4" ry="4" height="61.25" stroke="none"/>
    </g>
    <g text-rendering="geometricPrecision" stroke-miterlimit="1.45" shape-rendering="geometricPrecision" transform="matrix(1,0,0,1,111,-332)" stroke-linecap="butt">
      <rect x="758.125" y="448.5179" clip-path="url(#clipPath2)" fill="none" width="17" rx="4" ry="4" height="61.25"/>
    </g>
    <g fill="rgb(255,204,0)" text-rendering="geometricPrecision" shape-rendering="geometricPrecision" transform="matrix(1,0,0,1,111,-332)" stroke="rgb(255,204,0)">
      <rect x="269.25" y="347" clip-path="url(#clipPath2)" width="156.25" rx="4" ry="4" height="30" stroke="none"/>
    </g>
    <g text-rendering="geometricPrecision" stroke-miterlimit="1.45" shape-rendering="geometricPrecision" transform="matrix(1,0,0,1,111,-332)" stroke-linecap="butt">
      <rect x="269.25" y="347" clip-path="url(#clipPath2)" fill="none" width="156.25" rx="4" ry="4" height="30"/>
      <text x="314.8643" xml:space="preserve" y="366.1543" clip-path="url(#clipPath2)" font-family="sans-serif" stroke="none">Dispatcher</text>
    </g>
    <g fill="silver" text-rendering="geometricPrecision" shape-rendering="geometricPrecision" transform="matrix(1,0,0,1,111,-332)" stroke="silver">
      <rect x="338.875" y="558.31" clip-path="url(#clipPath2)" width="17" rx="4" ry="4" height="48.75" stroke="none"/>
    </g>
    <g text-rendering="geometricPrecision" stroke-miterlimit="1.45" shape-rendering="geometricPrecision" transform="matrix(1,0,0,1,111,-332)" stroke-linecap="butt">
      <rect x="338.875" y="558.31" clip-path="url(#clipPath2)" fill="none" width="17" rx="4" ry="4" height="48.75"/>
    </g>
    <g fill="rgb(153,204,255)" text-rendering="geometricPrecision" shape-rendering="geometricPrecision" transform="matrix(1,0,0,1,111,-332)" stroke="rgb(153,204,255)">
      <rect x="765.5" y="456.3304" clip-path="url(#clipPath2)" width="17" rx="4" ry="4" height="42.5" stroke="none"/>
    </g>
    <g text-rendering="geometricPrecision" stroke-miterlimit="1.45" shape-rendering="geometricPrecision" transform="matrix(1,0,0,1,111,-332)" stroke-linecap="butt">
      <rect x="765.5" y="456.3304" clip-path="url(#clipPath2)" fill="none" width="17" rx="4" ry="4" height="42.5"/>
    </g>
    <g fill="silver" text-rendering="geometricPrecision" shape-rendering="geometricPrecision" transform="matrix(1,0,0,1,111,-332)" stroke="silver">
      <rect x="548.5" y="439.7679" clip-path="url(#clipPath2)" width="17" rx="4" ry="4" height="74.7" stroke="none"/>
    </g>
    <g text-rendering="geometricPrecision" stroke-miterlimit="1.45" shape-rendering="geometricPrecision" transform="matrix(1,0,0,1,111,-332)" stroke-linecap="butt">
      <rect x="548.5" y="439.7679" clip-path="url(#clipPath2)" fill="none" width="17" rx="4" ry="4" height="74.7"/>
    </g>
    <g fill="rgb(255,204,0)" text-rendering="geometricPrecision" shape-rendering="geometricPrecision" transform="matrix(1,0,0,1,111,-332)" stroke="rgb(255,204,0)">
      <rect x="478.875" y="347.0179" clip-path="url(#clipPath2)" width="156.25" rx="4" ry="4" height="30" stroke="none"/>
    </g>
    <g text-rendering="geometricPrecision" stroke-miterlimit="1.45" shape-rendering="geometricPrecision" transform="matrix(1,0,0,1,111,-332)" stroke-linecap="butt">
      <rect x="478.875" y="347.0179" clip-path="url(#clipPath2)" fill="none" width="156.25" rx="4" ry="4" height="30"/>
      <text x="530.0732" xml:space="preserve" y="366.1722" clip-path="url(#clipPath2)" font-family="sans-serif" stroke="none">GwClient</text>
    </g>
    <g fill="rgb(255,204,0)" text-rendering="geometricPrecision" shape-rendering="geometricPrecision" transform="matrix(1,0,0,1,111,-332)" stroke="rgb(255,204,0)">
      <rect x="94.6767" width="51.5733" height="20.1696" y="622.5808" clip-path="url(#clipPath2)" stroke="none"/>
    </g>
    <g text-rendering="geometricPrecision" stroke-miterlimit="1.45" shape-rendering="geometricPrecision" transform="matrix(1,0,0,1,111,-332)" stroke-linecap="butt">
      <rect fill="none" x="94.6767" width="51.5733" height="20.1696" y="622.5808" clip-path="url(#clipPath2)"/>
      <text x="107.646" xml:space="preserve" y="636.8198" clip-path="url(#clipPath2)" font-family="sans-serif" stroke="none">loop</text>
    </g>
    <g fill="rgb(153,204,255)" text-rendering="geometricPrecision" shape-rendering="geometricPrecision" transform="matrix(1,0,0,1,111,-332)" stroke="rgb(153,204,255)">
      <rect x="139.75" y="672.7504" clip-path="url(#clipPath2)" width="17" rx="4" ry="4" height="42.5" stroke="none"/>
    </g>
    <g text-rendering="geometricPrecision" stroke-miterlimit="1.45" shape-rendering="geometricPrecision" transform="matrix(1,0,0,1,111,-332)" stroke-linecap="butt">
      <rect x="139.75" y="672.7504" clip-path="url(#clipPath2)" fill="none" width="17" rx="4" ry="4" height="42.5"/>
    </g>
    <g fill="white" text-rendering="geometricPrecision" shape-rendering="geometricPrecision" transform="matrix(1,0,0,1,111,-332)" stroke="white">
      <rect x="154.707" width="232.0127" height="15.6406" y="624.8452" clip-path="url(#clipPath2)" stroke="none"/>
    </g>
    <g font-size="10px" stroke-linecap="butt" transform="matrix(1,0,0,1,111,-332)" text-rendering="geometricPrecision" font-family="sans-serif" shape-rendering="geometricPrecision" stroke-miterlimit="1.45">
      <text x="156.707" xml:space="preserve" y="636.1274" clip-path="url(#clipPath2)" stroke="none">for target: string in storedAsset.connected_to</text>
    </g>
    <g fill="rgb(255,204,0)" text-rendering="geometricPrecision" shape-rendering="geometricPrecision" transform="matrix(1,0,0,1,111,-332)" stroke="rgb(255,204,0)">
      <rect x="-87.7917" width="903.0417" height="1" y="859" clip-path="url(#clipPath2)" stroke="none"/>
    </g>
    <g text-rendering="geometricPrecision" stroke-miterlimit="1.45" shape-rendering="geometricPrecision" transform="matrix(1,0,0,1,111,-332)" stroke-linecap="butt">
      <rect fill="none" x="-87.7917" width="903.0417" height="1" y="859" clip-path="url(#clipPath2)"/>
    </g>
    <g fill="rgb(255,204,0)" text-rendering="geometricPrecision" shape-rendering="geometricPrecision" transform="matrix(1,0,0,1,111,-332)" stroke="rgb(255,204,0)">
      <rect x="59.625" y="347" clip-path="url(#clipPath2)" width="156.25" rx="4" ry="4" height="30" stroke="none"/>
    </g>
    <g text-rendering="geometricPrecision" stroke-miterlimit="1.45" shape-rendering="geometricPrecision" transform="matrix(1,0,0,1,111,-332)" stroke-linecap="butt">
      <rect x="59.625" y="347" clip-path="url(#clipPath2)" fill="none" width="156.25" rx="4" ry="4" height="30"/>
      <text x="98.2754" xml:space="preserve" y="366.1543" clip-path="url(#clipPath2)" font-family="sans-serif" stroke="none">asset.actions</text>
    </g>
    <g fill="rgb(255,204,0)" text-rendering="geometricPrecision" shape-rendering="geometricPrecision" transform="matrix(1,0,0,1,111,-332)" stroke="rgb(255,204,0)">
      <rect x="-95.4167" y="347" clip-path="url(#clipPath2)" width="32.25" rx="4" ry="4" height="30" stroke="none"/>
    </g>
    <g text-rendering="geometricPrecision" stroke-miterlimit="1.45" shape-rendering="geometricPrecision" transform="matrix(1,0,0,1,111,-332)" stroke-linecap="butt">
      <rect x="-95.4167" y="347" clip-path="url(#clipPath2)" fill="none" width="32.25" rx="4" ry="4" height="30"/>
    </g>
    <g fill="silver" text-rendering="geometricPrecision" shape-rendering="geometricPrecision" transform="matrix(1,0,0,1,111,-332)" stroke="silver">
      <rect x="-87.7917" y="419.6668" clip-path="url(#clipPath2)" width="17" rx="4" ry="4" height="417.3332" stroke="none"/>
    </g>
    <g text-rendering="geometricPrecision" stroke-miterlimit="1.45" shape-rendering="geometricPrecision" transform="matrix(1,0,0,1,111,-332)" stroke-linecap="butt">
      <rect x="-87.7917" y="419.6668" clip-path="url(#clipPath2)" fill="none" width="17" rx="4" ry="4" height="417.3332"/>
    </g>
    <g fill="rgb(153,204,255)" text-rendering="geometricPrecision" shape-rendering="geometricPrecision" transform="matrix(1,0,0,1,111,-332)" stroke="rgb(153,204,255)">
      <rect x="139.75" y="802.0158" clip-path="url(#clipPath2)" width="17" rx="4" ry="4" height="20.1696" stroke="none"/>
    </g>
    <g text-rendering="geometricPrecision" stroke-miterlimit="1.45" shape-rendering="geometricPrecision" transform="matrix(1,0,0,1,111,-332)" stroke-linecap="butt">
      <rect x="139.75" y="802.0158" clip-path="url(#clipPath2)" fill="none" width="17" rx="4" ry="4" height="20.1696"/>
      <path fill="none" d="M146.2783 779.4557 L330.8368 779.4557" clip-path="url(#clipPath2)"/>
      <path d="M338.8368 779.4557 L326.8368 774.4557 L329.8368 779.4557 L326.8368 784.4557 Z" clip-path="url(#clipPath2)" stroke="none"/>
      <rect x="166.1997" y="761.8151" clip-path="url(#clipPath2)" fill="white" width="152.7256" height="15.6406" stroke="none"/>
      <text x="168.1997" font-size="10px" y="773.0974" clip-path="url(#clipPath2)" font-family="sans-serif" stroke="none" xml:space="preserve">addConnections(connections)</text>
      <path fill="none" stroke-dasharray="6,2" d="M766.625 377.0303 L766.625 448.4792" clip-path="url(#clipPath2)"/>
      <path fill="none" stroke-dasharray="6,2" d="M347.375 377.0051 L347.375 558.3057" clip-path="url(#clipPath2)"/>
      <path fill="none" d="M146.2728 564.0225 L330.8592 564.0225" clip-path="url(#clipPath2)"/>
      <path d="M338.8592 564.0225 L326.8592 559.0225 L329.8592 564.0225 L326.8592 569.0225 Z" clip-path="url(#clipPath2)" stroke="none"/>
      <rect x="186.9932" y="546.3819" clip-path="url(#clipPath2)" fill="white" width="111.1387" height="15.6406" stroke="none"/>
      <text x="188.9932" font-size="10px" y="557.6641" clip-path="url(#clipPath2)" font-family="sans-serif" stroke="none" xml:space="preserve">setInfoMessage(msg)</text>
      <path fill="none" d="M146.273 602.5807 L330.8592 602.5807" clip-path="url(#clipPath2)"/>
      <path d="M338.8592 602.5807 L326.8592 597.5807 L329.8592 602.5807 L326.8592 607.5807 Z" clip-path="url(#clipPath2)" stroke="none"/>
      <rect x="178.7583" y="584.9401" clip-path="url(#clipPath2)" fill="white" width="127.6084" height="15.6406" stroke="none"/>
      <text x="180.7583" font-size="10px" y="596.2224" clip-path="url(#clipPath2)" font-family="sans-serif" stroke="none" xml:space="preserve">postAssetSuccess(asset)</text>
      <path fill="none" stroke-dasharray="6,2" d="M347.375 607.0411 L347.375 773.6048" clip-path="url(#clipPath2)"/>
      <path fill="none" d="M782.4984 464.3687 L854.25 464.3687 L854.25 491.9118 L790.502 491.9118" clip-path="url(#clipPath2)"/>
      <path d="M782.502 491.9118 L794.502 496.9118 L791.502 491.9118 L794.502 486.9118 Z" clip-path="url(#clipPath2)" stroke="none"/>
      <rect x="798.1338" y="434.0484" clip-path="url(#clipPath2)" fill="white" width="172.2324" height="15.6406" stroke="none"/>
      <text x="800.1338" font-size="10px" y="445.3306" clip-path="url(#clipPath2)" font-family="sans-serif" stroke="none" xml:space="preserve">3. createAssetConnections(asset)</text>
      <path fill="none" stroke-dasharray="6,2" d="M758.0965 505.1056 L573.52 505.1056" clip-path="url(#clipPath2)"/>
      <path stroke-dasharray="6,2" d="M565.52 505.1056 L577.52 510.1056 L574.52 505.1056 L577.52 500.1056 Z" clip-path="url(#clipPath2)" stroke="none"/>
      <rect x="630.6328" y="487.465" clip-path="url(#clipPath2)" fill="white" width="62.3594" stroke-dasharray="6,2" height="15.6406" stroke="none"/>
      <text x="632.6328" font-size="10px" y="498.7472" clip-path="url(#clipPath2)" font-family="sans-serif" stroke="none" xml:space="preserve">4. response</text>
      <path fill="none" d="M146.2949 437.7719 L548.3233 439.7289" clip-path="url(#clipPath2)"/>
      <path d="M556.3232 439.7679 L544.3477 434.7095 L547.3233 439.724 L544.299 444.7094 Z" clip-path="url(#clipPath2)" stroke="none"/>
      <rect x="156.375" y="420.1804" clip-path="url(#clipPath2)" fill="white" width="100.0742" height="15.6406" stroke="none"/>
      <text x="158.375" font-size="10px" y="431.4626" clip-path="url(#clipPath2)" font-family="sans-serif" stroke="none" xml:space="preserve">1. postAsset(asset)</text>
      <text x="158.375" y="453.1676" clip-path="url(#clipPath2)" font-family="sans-serif" stroke="none" font-weight="bold" xml:space="preserve">async</text>
      <path fill="none" stroke-dasharray="6,2" d="M551.9608 514.4338 L154.2911 514.4338" clip-path="url(#clipPath2)"/>
      <path stroke-dasharray="6,2" d="M146.2911 514.4338 L158.2911 519.4338 L155.2911 514.4338 L158.2911 509.4338 Z" clip-path="url(#clipPath2)" stroke="none"/>
      <rect x="199.8281" y="494.4651" clip-path="url(#clipPath2)" fill="white" width="295.0938" stroke-dasharray="6,2" height="17.9688" stroke="none"/>
      <text x="201.8281" xml:space="preserve" y="507.6037" clip-path="url(#clipPath2)" font-family="sans-serif" stroke="none">promise&lt;Response&gt;: data = storedAsset: Asset</text>
      <path fill="none" d="M565.52 448.5216 L753.9607 448.5216" clip-path="url(#clipPath2)"/>
      <path d="M761.9607 448.5216 L749.9607 443.5216 L752.9607 448.5216 L749.9607 453.5216 Z" clip-path="url(#clipPath2)" stroke="none"/>
      <rect x="582.5518" y="430.881" clip-path="url(#clipPath2)" fill="white" width="158.5215" height="15.6406" stroke="none"/>
      <text x="584.5518" font-size="10px" y="442.1632" clip-path="url(#clipPath2)" font-family="sans-serif" stroke="none" xml:space="preserve">2. post("./connections/", asset)</text>
      <path fill="none" stroke-dasharray="6,2" d="M557 376.9955 L557 439.8165" clip-path="url(#clipPath2)"/>
      <path fill="none" d="M156.7484 680.7886 L228.5 680.7886 L228.5 708.3317 L164.752 708.3317" clip-path="url(#clipPath2)"/>
      <path d="M156.752 708.3317 L168.752 713.3317 L165.752 708.3317 L168.752 703.3317 Z" clip-path="url(#clipPath2)" stroke="none"/>
      <rect x="231.3696" y="657.6383" clip-path="url(#clipPath2)" fill="white" width="136.2607" height="73.8438" stroke="none"/>
      <text x="233.3696" font-size="10px" y="668.9205" clip-path="url(#clipPath2)" font-family="sans-serif" stroke="none" xml:space="preserve">connections.push(</text>
      <text x="233.3696" font-size="10px" y="680.5612" clip-path="url(#clipPath2)" font-family="sans-serif" stroke="none" xml:space="preserve">    factory.newConnection(</text>
      <text x="233.3696" font-size="10px" y="692.2018" clip-path="url(#clipPath2)" font-family="sans-serif" stroke="none" xml:space="preserve">        source: asset.name,</text>
      <text x="233.3696" font-size="10px" y="703.8424" clip-path="url(#clipPath2)" font-family="sans-serif" stroke="none" xml:space="preserve">        target: asset.name</text>
      <text x="233.3696" font-size="10px" y="715.483" clip-path="url(#clipPath2)" font-family="sans-serif" stroke="none" xml:space="preserve">   )</text>
      <text x="233.3696" font-size="10px" y="727.1237" clip-path="url(#clipPath2)" font-family="sans-serif" stroke="none" xml:space="preserve">)</text>
      <path fill="none" stroke-dasharray="6,2" d="M766.625 509.7526 L766.625 858.4984 L765.6153 858.9992" clip-path="url(#clipPath2)"/>
      <path fill="none" stroke-dasharray="6,2" d="M557 514.4581 L557 858.9623" clip-path="url(#clipPath2)"/>
      <path fill="none" stroke-dasharray="6,2" d="M347.375 785.3207 L347.375 858.966" clip-path="url(#clipPath2)"/>
      <path fill="none" stroke-dasharray="6,2" d="M137.75 830.9863 L137.75 858.6578" clip-path="url(#clipPath2)"/>
      <path fill="none" stroke-dasharray="6,2" d="M137.75 376.9716 L137.75 429.7743" clip-path="url(#clipPath2)"/>
      <path fill="none" stroke-dasharray="6,2" d="M-79.2917 376.9878 L-79.2917 419.6662" clip-path="url(#clipPath2)"/>
      <path fill="none" stroke-dasharray="6,2" d="M133.1419 830.9984 L-62.7601 830.9984" clip-path="url(#clipPath2)"/>
      <path stroke-dasharray="6,2" d="M-70.7601 830.9984 L-58.7601 835.9984 L-61.7601 830.9984 L-58.7601 825.9984 Z" clip-path="url(#clipPath2)" stroke="none"/>
      <path fill="none" stroke-dasharray="6,2" d="M-79.2917 837.0098 L-79.2917 859.0168" clip-path="url(#clipPath2)"/>
      <path fill="none" d="M-70.7687 429.7516 L125.1428 429.7516" clip-path="url(#clipPath2)"/>
      <path d="M133.1428 429.7516 L121.1428 424.7516 L124.1428 429.7516 L121.1428 434.7516 Z" clip-path="url(#clipPath2)" stroke="none"/>
      <text x="-61.2445" font-size="10px" y="423.3932" clip-path="url(#clipPath2)" font-family="sans-serif" stroke="none" xml:space="preserve">postAsset(asset: Asset, callback: fn)</text>
      <path fill="none" d="M156.7484 805.8306 L228.5 805.8306 L228.5 818.9019 L164.752 818.9019" clip-path="url(#clipPath2)"/>
      <path d="M156.752 818.9019 L168.752 823.9019 L165.752 818.9019 L168.752 813.9019 Z" clip-path="url(#clipPath2)" stroke="none"/>
      <text x="182.7023" font-size="10px" y="797.8204" clip-path="url(#clipPath2)" font-family="sans-serif" stroke="none" xml:space="preserve">callback(storedAsset)</text>
    </g>
  </g>
</svg>
