<?xml version="1.0" encoding="UTF-8"?><svg xmlns="http://www.w3.org/2000/svg" xmlns:xlink="http://www.w3.org/1999/xlink" fill-opacity="1" color-rendering="auto" color-interpolation="auto" text-rendering="auto" stroke="black" stroke-linecap="square" width="1097" stroke-miterlimit="10" shape-rendering="auto" stroke-opacity="1" fill="black" stroke-dasharray="none" font-weight="normal" stroke-width="1" height="397" font-family="'Dialog'" font-style="normal" stroke-linejoin="miter" font-size="12px" stroke-dashoffset="0" image-rendering="auto">
  <!--Generated by ySVG 2.5-->
  <defs id="genericDefs"/>
  <g>
    <defs id="defs1">
      <clipPath clipPathUnits="userSpaceOnUse" id="clipPath1">
        <path d="M0 0 L1097 0 L1097 397 L0 397 L0 0 Z"/>
      </clipPath>
      <clipPath clipPathUnits="userSpaceOnUse" id="clipPath2">
        <path d="M-111 332 L986 332 L986 729 L-111 729 L-111 332 Z"/>
      </clipPath>
    </defs>
    <g fill="white" text-rendering="geometricPrecision" shape-rendering="geometricPrecision" transform="translate(111,-332)" stroke="white">
      <rect x="-111" width="1097" height="397" y="332" clip-path="url(#clipPath2)" stroke="none"/>
    </g>
    <g fill="silver" text-rendering="geometricPrecision" shape-rendering="geometricPrecision" transform="matrix(1,0,0,1,111,-332)" stroke="silver">
      <rect x="115.0417" y="429.75" clip-path="url(#clipPath2)" width="17" rx="4" ry="4" height="264.6" stroke="none"/>
    </g>
    <g text-rendering="geometricPrecision" stroke-miterlimit="1.45" shape-rendering="geometricPrecision" transform="matrix(1,0,0,1,111,-332)" stroke-linecap="butt">
      <rect x="115.0417" y="429.75" clip-path="url(#clipPath2)" fill="none" width="17" rx="4" ry="4" height="264.6"/>
    </g>
    <g fill="rgb(255,204,0)" text-rendering="geometricPrecision" shape-rendering="geometricPrecision" transform="matrix(1,0,0,1,111,-332)" stroke="rgb(255,204,0)">
      <rect x="688.5" y="347.0179" clip-path="url(#clipPath2)" width="156.25" rx="4" ry="4" height="30" stroke="none"/>
    </g>
    <g text-rendering="geometricPrecision" stroke-miterlimit="1.45" shape-rendering="geometricPrecision" transform="matrix(1,0,0,1,111,-332)" stroke-linecap="butt">
      <rect x="688.5" y="347.0179" clip-path="url(#clipPath2)" fill="none" width="156.25" rx="4" ry="4" height="30"/>
      <text x="757.1328" xml:space="preserve" y="366.1722" clip-path="url(#clipPath2)" font-family="sans-serif" stroke="none">API</text>
    </g>
    <g fill="silver" text-rendering="geometricPrecision" shape-rendering="geometricPrecision" transform="matrix(1,0,0,1,111,-332)" stroke="silver">
      <rect x="758.125" y="448.5179" clip-path="url(#clipPath2)" width="17" rx="4" ry="4" height="61.25" stroke="none"/>
    </g>
    <g text-rendering="geometricPrecision" stroke-miterlimit="1.45" shape-rendering="geometricPrecision" transform="matrix(1,0,0,1,111,-332)" stroke-linecap="butt">
      <rect x="758.125" y="448.5179" clip-path="url(#clipPath2)" fill="none" width="17" rx="4" ry="4" height="61.25"/>
    </g>
    <g fill="rgb(255,204,0)" text-rendering="geometricPrecision" shape-rendering="geometricPrecision" transform="matrix(1,0,0,1,111,-332)" stroke="rgb(255,204,0)">
      <rect x="269.25" y="347" clip-path="url(#clipPath2)" width="156.25" rx="4" ry="4" height="30" stroke="none"/>
    </g>
    <g text-rendering="geometricPrecision" stroke-miterlimit="1.45" shape-rendering="geometricPrecision" transform="matrix(1,0,0,1,111,-332)" stroke-linecap="butt">
      <rect x="269.25" y="347" clip-path="url(#clipPath2)" fill="none" width="156.25" rx="4" ry="4" height="30"/>
      <text x="314.8643" xml:space="preserve" y="366.1543" clip-path="url(#clipPath2)" font-family="sans-serif" stroke="none">Dispatcher</text>
    </g>
    <g fill="silver" text-rendering="geometricPrecision" shape-rendering="geometricPrecision" transform="matrix(1,0,0,1,111,-332)" stroke="silver">
      <rect x="338.875" y="558.31" clip-path="url(#clipPath2)" width="17" rx="4" ry="4" height="85.87" stroke="none"/>
    </g>
    <g text-rendering="geometricPrecision" stroke-miterlimit="1.45" shape-rendering="geometricPrecision" transform="matrix(1,0,0,1,111,-332)" stroke-linecap="butt">
      <rect x="338.875" y="558.31" clip-path="url(#clipPath2)" fill="none" width="17" rx="4" ry="4" height="85.87"/>
    </g>
    <g fill="rgb(153,204,255)" text-rendering="geometricPrecision" shape-rendering="geometricPrecision" transform="matrix(1,0,0,1,111,-332)" stroke="rgb(153,204,255)">
      <rect x="765.5" y="456.3304" clip-path="url(#clipPath2)" width="17" rx="4" ry="4" height="42.5" stroke="none"/>
    </g>
    <g text-rendering="geometricPrecision" stroke-miterlimit="1.45" shape-rendering="geometricPrecision" transform="matrix(1,0,0,1,111,-332)" stroke-linecap="butt">
      <rect x="765.5" y="456.3304" clip-path="url(#clipPath2)" fill="none" width="17" rx="4" ry="4" height="42.5"/>
    </g>
    <g fill="silver" text-rendering="geometricPrecision" shape-rendering="geometricPrecision" transform="matrix(1,0,0,1,111,-332)" stroke="silver">
      <rect x="548.5" y="439.7679" clip-path="url(#clipPath2)" width="17" rx="4" ry="4" height="74.7" stroke="none"/>
    </g>
    <g text-rendering="geometricPrecision" stroke-miterlimit="1.45" shape-rendering="geometricPrecision" transform="matrix(1,0,0,1,111,-332)" stroke-linecap="butt">
      <rect x="548.5" y="439.7679" clip-path="url(#clipPath2)" fill="none" width="17" rx="4" ry="4" height="74.7"/>
    </g>
    <g fill="rgb(255,204,0)" text-rendering="geometricPrecision" shape-rendering="geometricPrecision" transform="matrix(1,0,0,1,111,-332)" stroke="rgb(255,204,0)">
      <rect x="478.875" y="347.0179" clip-path="url(#clipPath2)" width="156.25" rx="4" ry="4" height="30" stroke="none"/>
    </g>
    <g text-rendering="geometricPrecision" stroke-miterlimit="1.45" shape-rendering="geometricPrecision" transform="matrix(1,0,0,1,111,-332)" stroke-linecap="butt">
      <rect x="478.875" y="347.0179" clip-path="url(#clipPath2)" fill="none" width="156.25" rx="4" ry="4" height="30"/>
      <text x="530.0732" xml:space="preserve" y="366.1722" clip-path="url(#clipPath2)" font-family="sans-serif" stroke="none">GwClient</text>
    </g>
    <g fill="rgb(255,204,0)" text-rendering="geometricPrecision" shape-rendering="geometricPrecision" transform="matrix(1,0,0,1,111,-332)" stroke="rgb(255,204,0)">
      <rect x="45.4167" y="347" clip-path="url(#clipPath2)" width="156.25" rx="4" ry="4" height="30" stroke="none"/>
    </g>
    <g text-rendering="geometricPrecision" stroke-miterlimit="1.45" shape-rendering="geometricPrecision" transform="matrix(1,0,0,1,111,-332)" stroke-linecap="butt">
      <rect x="45.4167" y="347" clip-path="url(#clipPath2)" fill="none" width="156.25" rx="4" ry="4" height="30"/>
      <text x="84.0671" xml:space="preserve" y="366.1543" clip-path="url(#clipPath2)" font-family="sans-serif" stroke="none">asset.actions</text>
    </g>
    <g fill="rgb(255,204,0)" text-rendering="geometricPrecision" shape-rendering="geometricPrecision" transform="matrix(1,0,0,1,111,-332)" stroke="rgb(255,204,0)">
      <rect x="-95.4167" y="347" clip-path="url(#clipPath2)" width="32.25" rx="4" ry="4" height="30" stroke="none"/>
    </g>
    <g text-rendering="geometricPrecision" stroke-miterlimit="1.45" shape-rendering="geometricPrecision" transform="matrix(1,0,0,1,111,-332)" stroke-linecap="butt">
      <rect x="-95.4167" y="347" clip-path="url(#clipPath2)" fill="none" width="32.25" rx="4" ry="4" height="30"/>
    </g>
    <g fill="silver" text-rendering="geometricPrecision" shape-rendering="geometricPrecision" transform="matrix(1,0,0,1,111,-332)" stroke="silver">
      <rect x="-87.7917" y="419.6668" clip-path="url(#clipPath2)" width="17" rx="4" ry="4" height="293.5832" stroke="none"/>
    </g>
    <g text-rendering="geometricPrecision" stroke-miterlimit="1.45" shape-rendering="geometricPrecision" transform="matrix(1,0,0,1,111,-332)" stroke-linecap="butt">
      <rect x="-87.7917" y="419.6668" clip-path="url(#clipPath2)" fill="none" width="17" rx="4" ry="4" height="293.5832"/>
    </g>
    <g fill="rgb(153,204,255)" text-rendering="geometricPrecision" shape-rendering="geometricPrecision" transform="matrix(1,0,0,1,111,-332)" stroke="rgb(153,204,255)">
      <rect x="125.5417" y="665.3804" clip-path="url(#clipPath2)" width="17" rx="4" ry="4" height="20.1696" stroke="none"/>
    </g>
    <g text-rendering="geometricPrecision" stroke-miterlimit="1.45" shape-rendering="geometricPrecision" transform="matrix(1,0,0,1,111,-332)" stroke-linecap="butt">
      <rect x="125.5417" y="665.3804" clip-path="url(#clipPath2)" fill="none" width="17" rx="4" ry="4" height="20.1696"/>
      <path fill="none" stroke-dasharray="6,2" d="M766.625 377.0303 L766.625 448.4792" clip-path="url(#clipPath2)"/>
      <path fill="none" stroke-dasharray="6,2" d="M347.375 376.982 L347.375 558.2923" clip-path="url(#clipPath2)"/>
      <path fill="none" d="M132.0377 564.9076 L330.8872 564.9076" clip-path="url(#clipPath2)"/>
      <path d="M338.8872 564.9076 L326.8872 559.9076 L329.8872 564.9076 L326.8872 569.9076 Z" clip-path="url(#clipPath2)" stroke="none"/>
      <rect x="179.889" y="547.267" clip-path="url(#clipPath2)" fill="white" width="111.1387" height="15.6406" stroke="none"/>
      <text x="181.889" font-size="10px" y="558.5492" clip-path="url(#clipPath2)" font-family="sans-serif" stroke="none" xml:space="preserve">setInfoMessage(msg)</text>
      <path fill="none" d="M132.0462 601.245 L330.8586 601.245" clip-path="url(#clipPath2)"/>
      <path d="M338.8586 601.245 L326.8586 596.245 L329.8586 601.245 L326.8586 606.245 Z" clip-path="url(#clipPath2)" stroke="none"/>
      <rect x="171.6541" y="583.6044" clip-path="url(#clipPath2)" fill="white" width="127.6084" height="15.6406" stroke="none"/>
      <text x="173.6541" font-size="10px" y="594.8866" clip-path="url(#clipPath2)" font-family="sans-serif" stroke="none" xml:space="preserve">postAssetSuccess(asset)</text>
      <path fill="none" d="M132.0629 637.2527 L330.8692 637.2527" clip-path="url(#clipPath2)"/>
      <path d="M338.8692 637.2527 L326.8692 632.2527 L329.8692 637.2527 L326.8692 642.2527 Z" clip-path="url(#clipPath2)" stroke="none"/>
      <text x="139.223" font-size="10px" y="630.8943" clip-path="url(#clipPath2)" font-family="sans-serif" stroke="none" xml:space="preserve">updateAssetConnections(connections)</text>
      <path fill="none" d="M782.4984 464.3687 L854.25 464.3687 L854.25 491.9118 L790.502 491.9118" clip-path="url(#clipPath2)"/>
      <path d="M782.502 491.9118 L794.502 496.9118 L791.502 491.9118 L794.502 486.9118 Z" clip-path="url(#clipPath2)" stroke="none"/>
      <rect x="798.1338" y="434.0484" clip-path="url(#clipPath2)" fill="white" width="172.2324" height="15.6406" stroke="none"/>
      <text x="800.1338" font-size="10px" y="445.3306" clip-path="url(#clipPath2)" font-family="sans-serif" stroke="none" xml:space="preserve">3. createAssetConnections(asset)</text>
      <path fill="none" stroke-dasharray="6,2" d="M758.0965 505.1056 L573.52 505.1056" clip-path="url(#clipPath2)"/>
      <path stroke-dasharray="6,2" d="M565.52 505.1056 L577.52 510.1056 L574.52 505.1056 L577.52 500.1056 Z" clip-path="url(#clipPath2)" stroke="none"/>
      <rect x="630.6328" y="487.465" clip-path="url(#clipPath2)" fill="white" width="62.3594" stroke-dasharray="6,2" height="15.6406" stroke="none"/>
      <text x="632.6328" font-size="10px" y="498.7472" clip-path="url(#clipPath2)" font-family="sans-serif" stroke="none" xml:space="preserve">4. response</text>
      <path fill="none" d="M132.0384 439.7711 L544.3572 439.7711" clip-path="url(#clipPath2)"/>
      <path d="M552.3572 439.7711 L540.3572 434.7711 L543.3572 439.7711 L540.3572 444.7711 Z" clip-path="url(#clipPath2)" stroke="none"/>
      <rect x="142.1667" y="422.1305" clip-path="url(#clipPath2)" fill="white" width="100.0742" height="15.6406" stroke="none"/>
      <text x="144.1667" font-size="10px" y="433.4128" clip-path="url(#clipPath2)" font-family="sans-serif" stroke="none" xml:space="preserve">1. postAsset(asset)</text>
      <text x="144.1667" y="454.9098" clip-path="url(#clipPath2)" font-family="sans-serif" stroke="none" font-weight="bold" xml:space="preserve">async</text>
      <path fill="none" stroke-dasharray="6,2" d="M551.9943 514.4338 L140.0593 514.4338" clip-path="url(#clipPath2)"/>
      <path stroke-dasharray="6,2" d="M132.0593 514.4338 L144.0593 519.4338 L141.0593 514.4338 L144.0593 509.4338 Z" clip-path="url(#clipPath2)" stroke="none"/>
      <rect x="192.724" y="494.4651" clip-path="url(#clipPath2)" fill="white" width="295.0938" stroke-dasharray="6,2" height="17.9688" stroke="none"/>
      <text x="194.724" xml:space="preserve" y="507.6037" clip-path="url(#clipPath2)" font-family="sans-serif" stroke="none">promise&lt;Response&gt;: data = storedAsset: Asset</text>
      <text x="144.1667" y="529.5725" clip-path="url(#clipPath2)" font-family="sans-serif" stroke="none" font-weight="bold" xml:space="preserve">await</text>
      <path fill="none" d="M565.52 448.5216 L753.9607 448.5216" clip-path="url(#clipPath2)"/>
      <path d="M761.9607 448.5216 L749.9607 443.5216 L752.9607 448.5216 L749.9607 453.5216 Z" clip-path="url(#clipPath2)" stroke="none"/>
      <rect x="582.5518" y="430.881" clip-path="url(#clipPath2)" fill="white" width="158.5215" height="15.6406" stroke="none"/>
      <text x="584.5518" font-size="10px" y="442.1632" clip-path="url(#clipPath2)" font-family="sans-serif" stroke="none" xml:space="preserve">2. post("./connections/", asset)</text>
      <path fill="none" stroke-dasharray="6,2" d="M557 376.9955 L557 439.8165" clip-path="url(#clipPath2)"/>
      <path fill="none" stroke-dasharray="6,2" d="M123.5417 376.994 L123.5417 429.7187" clip-path="url(#clipPath2)"/>
      <path fill="none" stroke-dasharray="6,2" d="M-79.2917 377.0249 L-79.2917 419.7122" clip-path="url(#clipPath2)"/>
      <path fill="none" stroke-dasharray="6,2" d="M118.9405 694.3489 L-62.7526 694.3489" clip-path="url(#clipPath2)"/>
      <path stroke-dasharray="6,2" d="M-70.7526 694.3489 L-58.7526 699.3489 L-61.7526 694.3489 L-58.7526 689.3489 Z" clip-path="url(#clipPath2)" stroke="none"/>
      <path fill="none" d="M-70.762 429.7511 L110.9402 429.7511" clip-path="url(#clipPath2)"/>
      <path d="M118.9402 429.7511 L106.9402 424.7511 L109.9402 429.7511 L106.9402 434.7511 Z" clip-path="url(#clipPath2)" stroke="none"/>
      <text x="-68.3486" font-size="10px" y="423.3927" clip-path="url(#clipPath2)" font-family="sans-serif" stroke="none" xml:space="preserve">postAsset(asset: Asset, callback: fn)</text>
      <path fill="none" d="M142.5401 669.1952 L214.2917 669.1952 L214.2917 682.2666 L150.5436 682.2666" clip-path="url(#clipPath2)"/>
      <path d="M142.5436 682.2666 L154.5436 687.2666 L151.5436 682.2666 L154.5436 677.2666 Z" clip-path="url(#clipPath2)" stroke="none"/>
      <text x="168.494" font-size="10px" y="661.1851" clip-path="url(#clipPath2)" font-family="sans-serif" stroke="none" xml:space="preserve">callback(storedAsset)</text>
    </g>
  </g>
</svg>
