<?xml version="1.0" encoding="UTF-8"?><svg xmlns="http://www.w3.org/2000/svg" xmlns:xlink="http://www.w3.org/1999/xlink" fill-opacity="1" color-rendering="auto" color-interpolation="auto" text-rendering="auto" stroke="black" stroke-linecap="square" width="578" stroke-miterlimit="10" shape-rendering="auto" stroke-opacity="1" fill="black" stroke-dasharray="none" font-weight="normal" stroke-width="1" height="375" font-family="'Dialog'" font-style="normal" stroke-linejoin="miter" font-size="12px" stroke-dashoffset="0" image-rendering="auto">
  <!--Generated by ySVG 2.5-->
  <defs id="genericDefs"/>
  <g>
    <defs id="defs1">
      <clipPath clipPathUnits="userSpaceOnUse" id="clipPath1">
        <path d="M0 0 L578 0 L578 375 L0 375 L0 0 Z"/>
      </clipPath>
      <clipPath clipPathUnits="userSpaceOnUse" id="clipPath2">
        <path d="M657 85 L1235 85 L1235 460 L657 460 L657 85 Z"/>
      </clipPath>
    </defs>
    <g fill="white" text-rendering="geometricPrecision" shape-rendering="geometricPrecision" transform="translate(-657,-85)" stroke="white">
      <rect x="657" width="578" height="375" y="85" clip-path="url(#clipPath2)" stroke="none"/>
    </g>
    <g fill="silver" text-rendering="geometricPrecision" shape-rendering="geometricPrecision" transform="matrix(1,0,0,1,-657,-85)" stroke="silver">
      <rect x="672.856" width="234.144" height="64.72" y="255.1056" clip-path="url(#clipPath2)" stroke="none"/>
    </g>
    <g text-rendering="geometricPrecision" stroke-miterlimit="1.45" shape-rendering="geometricPrecision" transform="matrix(1,0,0,1,-657,-85)" stroke-linecap="butt">
      <rect fill="none" x="672.856" width="234.144" height="64.72" y="255.1056" clip-path="url(#clipPath2)"/>
      <text x="678.856" xml:space="preserve" y="270.6668" clip-path="url(#clipPath2)" font-family="sans-serif" stroke="none">name: String</text>
      <text x="678.856" xml:space="preserve" y="284.6355" clip-path="url(#clipPath2)" font-family="sans-serif" stroke="none">description: String</text>
      <text x="678.856" xml:space="preserve" y="298.6043" clip-path="url(#clipPath2)" font-family="sans-serif" stroke="none">connected_to: Array&lt;Asset.name&gt;</text>
      <text x="678.856" xml:space="preserve" y="312.573" clip-path="url(#clipPath2)" font-family="sans-serif" stroke="none">tags: Array&lt;Tag.name&gt;</text>
    </g>
    <g fill="rgb(255,204,0)" text-rendering="geometricPrecision" shape-rendering="geometricPrecision" transform="matrix(1,0,0,1,-657,-85)" stroke="rgb(255,204,0)">
      <rect x="672.856" width="234.144" height="30" y="225.1056" clip-path="url(#clipPath2)" stroke="none"/>
    </g>
    <g text-rendering="geometricPrecision" stroke-miterlimit="1.45" shape-rendering="geometricPrecision" transform="matrix(1,0,0,1,-657,-85)" stroke-linecap="butt">
      <rect fill="none" x="672.856" width="234.144" height="30" y="225.1056" clip-path="url(#clipPath2)"/>
      <text x="773.5276" xml:space="preserve" y="244.2599" clip-path="url(#clipPath2)" font-family="sans-serif" stroke="none">Asset</text>
    </g>
    <g fill="silver" text-rendering="geometricPrecision" shape-rendering="geometricPrecision" transform="matrix(1,0,0,1,-657,-85)" stroke="silver">
      <rect x="833.712" width="234.144" height="64.72" y="379.8256" clip-path="url(#clipPath2)" stroke="none"/>
    </g>
    <g text-rendering="geometricPrecision" stroke-miterlimit="1.45" shape-rendering="geometricPrecision" transform="matrix(1,0,0,1,-657,-85)" stroke-linecap="butt">
      <rect fill="none" x="833.712" width="234.144" height="64.72" y="379.8256" clip-path="url(#clipPath2)"/>
      <text x="839.712" xml:space="preserve" y="396.9643" clip-path="url(#clipPath2)" font-family="sans-serif" stroke="none">source: String&lt;Asset.name&gt; </text>
      <text x="839.712" xml:space="preserve" y="410.933" clip-path="url(#clipPath2)" font-family="sans-serif" stroke="none">target: String&lt;Asset.name&gt;</text>
      <text x="839.712" xml:space="preserve" y="424.9018" clip-path="url(#clipPath2)" font-family="sans-serif" stroke="none">description: String</text>
      <text x="839.712" xml:space="preserve" y="438.8705" clip-path="url(#clipPath2)" font-family="sans-serif" stroke="none">tags: Array&lt;Tag.name&gt;</text>
    </g>
    <g fill="rgb(255,204,0)" text-rendering="geometricPrecision" shape-rendering="geometricPrecision" transform="matrix(1,0,0,1,-657,-85)" stroke="rgb(255,204,0)">
      <rect x="833.712" width="234.144" height="30" y="349.8256" clip-path="url(#clipPath2)" stroke="none"/>
    </g>
    <g text-rendering="geometricPrecision" stroke-miterlimit="1.45" shape-rendering="geometricPrecision" transform="matrix(1,0,0,1,-657,-85)" stroke-linecap="butt">
      <rect fill="none" x="833.712" width="234.144" height="30" y="349.8256" clip-path="url(#clipPath2)"/>
      <text x="916.8348" xml:space="preserve" y="368.9799" clip-path="url(#clipPath2)" font-family="sans-serif" stroke="none">Connection</text>
    </g>
    <g fill="silver" text-rendering="geometricPrecision" shape-rendering="geometricPrecision" transform="matrix(1,0,0,1,-657,-85)" stroke="silver">
      <rect x="984.962" width="234.144" height="40.72" y="255.1056" clip-path="url(#clipPath2)" stroke="none"/>
    </g>
    <g text-rendering="geometricPrecision" stroke-miterlimit="1.45" shape-rendering="geometricPrecision" transform="matrix(1,0,0,1,-657,-85)" stroke-linecap="butt">
      <rect fill="none" x="984.962" width="234.144" height="40.72" y="255.1056" clip-path="url(#clipPath2)"/>
      <text x="990.962" xml:space="preserve" y="272.6355" clip-path="url(#clipPath2)" font-family="sans-serif" stroke="none">name: String</text>
      <text x="990.962" xml:space="preserve" y="286.6043" clip-path="url(#clipPath2)" font-family="sans-serif" stroke="none">description: String</text>
    </g>
    <g fill="rgb(255,204,0)" text-rendering="geometricPrecision" shape-rendering="geometricPrecision" transform="matrix(1,0,0,1,-657,-85)" stroke="rgb(255,204,0)">
      <rect x="984.962" width="234.144" height="30" y="225.1056" clip-path="url(#clipPath2)" stroke="none"/>
    </g>
    <g text-rendering="geometricPrecision" stroke-miterlimit="1.45" shape-rendering="geometricPrecision" transform="matrix(1,0,0,1,-657,-85)" stroke-linecap="butt">
      <rect fill="none" x="984.962" width="234.144" height="30" y="225.1056" clip-path="url(#clipPath2)"/>
      <text x="1090.8837" xml:space="preserve" y="244.2599" clip-path="url(#clipPath2)" font-family="sans-serif" stroke="none">Tag</text>
    </g>
    <g fill="silver" text-rendering="geometricPrecision" shape-rendering="geometricPrecision" transform="matrix(1,0,0,1,-657,-85)" stroke="silver">
      <rect x="828.909" width="234.144" height="64.72" y="130.3856" clip-path="url(#clipPath2)" stroke="none"/>
    </g>
    <g text-rendering="geometricPrecision" stroke-miterlimit="1.45" shape-rendering="geometricPrecision" transform="matrix(1,0,0,1,-657,-85)" stroke-linecap="butt">
      <rect fill="none" x="828.909" width="234.144" height="64.72" y="130.3856" clip-path="url(#clipPath2)"/>
      <text x="834.909" xml:space="preserve" y="145.9468" clip-path="url(#clipPath2)" font-family="sans-serif" stroke="none">name: String</text>
      <text x="834.909" xml:space="preserve" y="159.9155" clip-path="url(#clipPath2)" font-family="sans-serif" stroke="none">description: String</text>
      <text x="834.909" xml:space="preserve" y="173.8843" clip-path="url(#clipPath2)" font-family="sans-serif" stroke="none">assets: Array&lt;Asset.name&gt;</text>
      <text x="834.909" xml:space="preserve" y="187.853" clip-path="url(#clipPath2)" font-family="sans-serif" stroke="none">tags: Array&lt;Tag.name&gt;</text>
    </g>
    <g fill="rgb(255,204,0)" text-rendering="geometricPrecision" shape-rendering="geometricPrecision" transform="matrix(1,0,0,1,-657,-85)" stroke="rgb(255,204,0)">
      <rect x="828.909" width="234.144" height="30" y="100.3856" clip-path="url(#clipPath2)" stroke="none"/>
    </g>
    <g text-rendering="geometricPrecision" stroke-miterlimit="1.45" shape-rendering="geometricPrecision" transform="matrix(1,0,0,1,-657,-85)" stroke-linecap="butt">
      <rect fill="none" x="828.909" width="234.144" height="30" y="100.3856" clip-path="url(#clipPath2)"/>
      <text x="920.232" xml:space="preserve" y="119.5399" clip-path="url(#clipPath2)" font-family="sans-serif" stroke="none">Mapping</text>
      <path fill="none" d="M789.928 319.8256 L789.928 364.8256 L833.712 364.8256" clip-path="url(#clipPath2)"/>
      <text x="778.2932" xml:space="preserve" y="343.0893" clip-path="url(#clipPath2)" font-family="sans-serif" stroke="none">2</text>
      <text x="800.3233" xml:space="preserve" y="357.9955" clip-path="url(#clipPath2)" font-family="sans-serif" stroke="none">0..*</text>
      <path fill="none" d="M1067.8613 369.3093 L1102.0341 369.3093 L1102.0341 303.8256" clip-path="url(#clipPath2)"/>
      <path d="M1102.0341 295.8256 L1097.0341 307.8256 L1102.0341 304.8256 L1107.0341 307.8256 Z" clip-path="url(#clipPath2)" stroke="none"/>
      <text x="1076.7704" xml:space="preserve" y="319.0893" clip-path="url(#clipPath2)" font-family="sans-serif" stroke="none">0..*</text>
      <path fill="none" d="M907.0265 240.1056 L976.962 240.1056" clip-path="url(#clipPath2)"/>
      <path d="M984.962 240.1056 L972.962 235.1056 L975.962 240.1056 L972.962 245.1056 Z" clip-path="url(#clipPath2)" stroke="none"/>
      <text x="951.5733" xml:space="preserve" y="233.2755" clip-path="url(#clipPath2)" font-family="sans-serif" stroke="none">0..*</text>
      <path fill="none" d="M828.909 115.3856 L789.928 115.3856 L789.928 217.1056" clip-path="url(#clipPath2)"/>
      <path d="M789.928 225.1056 L794.928 213.1056 L789.928 216.1056 L784.928 213.1056 Z" clip-path="url(#clipPath2)" stroke="none"/>
      <text x="764.6643" xml:space="preserve" y="210.1505" clip-path="url(#clipPath2)" font-family="sans-serif" stroke="none">0..*</text>
      <path fill="none" d="M1063.053 114.0605 L1102.0341 113.6193 L1102.0341 217.1056" clip-path="url(#clipPath2)"/>
      <path d="M1102.0341 225.1056 L1107.0341 213.1056 L1102.0341 216.1056 L1097.0341 213.1056 Z" clip-path="url(#clipPath2)" stroke="none"/>
      <text x="1076.7704" xml:space="preserve" y="210.1505" clip-path="url(#clipPath2)" font-family="sans-serif" stroke="none">0..*</text>
    </g>
  </g>
</svg>
